{"title":"Soorma (2018) 720p NF WEBRip x265 HEVC - ENX265","magnet":"magnet:?xt=urn:btih:05eea92f6daa4cd994dc2b58f3978d2033031242&dn=Soorma+%282018%29+720p+NF+WEBRip+x265+HEVC+-+ENX265&tr=udp%3A%2F%2Ftracker.leechers-paradise.org%3A6969&tr=udp%3A%2F%2Fzer0day.ch%3A1337&tr=udp%3A%2F%2Fopen.demonii.com%3A1337&tr=udp%3A%2F%2Ftracker.coppersurfer.tk%3A6969&tr=udp%3A%2F%2Fexodus.desync.com%3A6969","uploader":"enx265","categoryP":"video","categoryS":"movies","size":"811336742","seeders":"2","leechers":"4","description":"ENCODE BY ENX265 MOVIES\r\n\r\nGeneral \r\n\r\nFormat : Matroska \r\nFormat version : Version 4 \r\nFile size : 774 MiB \r\nDuration : 2 h 10 min \r\nOverall bit rate : 827 kb/s \r\nMovie name : Movcr.cc \r\nEncoded date : UTC 2018-10-14 06:00:20 / UTC 2018-10-14T00:31:06Z \r\nWriting application : mkvmerge v8.2.0 (&apos;World of Adventure&apos;) 64bit \r\nWriting library : libebml v1.3.1 + libmatroska v1.4.2 / Lavf57.7.2 \r\n\r\nVideo \r\n\r\nID : 1 \r\nFormat : HEVC \r\nFormat/Info : High Efficiency Video Coding \r\nFormat profile : Main 10@L3.1@Main \r\nCodec ID : V_MPEGH/ISO/HEVC \r\nDuration : 2 h 10 min \r\nBit rate : 713 kb/s \r\nWidth : 1 280 pixels \r\nHeight : 544 pixels \r\nDisplay aspect ratio : 2.35:1 \r\nFrame rate mode : Constant \r\nFrame rate : 23.976 (24000/1001) FPS \r\nColor space : YUV \r\nChroma subsampling : 4:2:0 \r\nBit depth : 10 bits \r\nBits/(Pixel*Frame) : 0.043 \r\nStream size : 667 MiB (86%) \r\nWriting library : x265 2.6:[Windows][GCC 7.3.0][64 bit] 10bit \r\nDefault : Yes \r\nForced : No \r\nColor range : Limited \r\nColor primaries : BT.709 \r\nTransfer characteristics : BT.709 \r\nMatrix coefficients : BT.709 \r\n\r\nAudio \r\n\r\nID : 2 \r\nFormat : AAC LC \r\nFormat/Info : Advanced Audio Codec Low Complexity \r\nCodec ID : A_AAC-2 \r\nDuration : 2 h 10 min \r\nBit rate : 112 kb/s \r\nChannel(s) : 2 channels \r\nChannel layout : L R \r\nSampling rate : 48.0 kHz \r\nFrame rate : 46.875 FPS (1024 SPF) \r\nCompression mode : Lossy \r\nStream size : 105 MiB (14%) \r\nTitle : Stereo \r\nLanguage : Hindi \r\nDefault : Yes \r\nForced : No \r\n\r\nAudio : Hindi","last_updated":"2018-10-14T12:18:17.648Z","parsed":{"xt":"urn:btih:05eea92f6daa4cd994dc2b58f3978d2033031242","dn":"Soorma (2018) 720p NF WEBRip x265 HEVC - ENX265","tr":["udp://exodus.desync.com:6969","udp://open.demonii.com:1337","udp://tracker.coppersurfer.tk:6969","udp://tracker.leechers-paradise.org:6969","udp://zer0day.ch:1337"],"infoHash":"05eea92f6daa4cd994dc2b58f3978d2033031242","infoHashBuffer":{"type":"Buffer","data":[5,238,169,47,109,170,76,217,148,220,43,88,243,151,141,32,51,3,18,66]},"name":"Soorma (2018) 720p NF WEBRip x265 HEVC - ENX265","announce":["udp://exodus.desync.com:6969","udp://open.demonii.com:1337","udp://tracker.coppersurfer.tk:6969","udp://tracker.leechers-paradise.org:6969","udp://zer0day.ch:1337"],"urlList":[]}}